HIERARCHY
ROOT Hips
{
	OFFSET -3.958830 18.904000 13.208200
	CHANNELS 6 Xposition Yposition Zposition Zrotation Yrotation Xrotation 
	JOINT LHipJoint
	{
		OFFSET 0.000000 0.000000 0.000000
		CHANNELS 3 Zrotation Yrotation Xrotation
		JOINT LeftUpLeg
		{
			OFFSET 1.800000 -1.400000 0.085000
			CHANNELS 3 Zrotation Yrotation Xrotation
			JOINT LeftLeg
			{
				OFFSET 2.215000 -6.000000 0.000000
				CHANNELS 3 Zrotation Yrotation Xrotation
				JOINT LeftFoot
				{
					OFFSET 2.500000 -6.900000 0.000000
					CHANNELS 3 Zrotation Yrotation Xrotation
					JOINT LeftToeBase
					{
						OFFSET 0.200000 -0.500000 1.950000
						CHANNELS 3 Zrotation Yrotation Xrotation
						End Site
						{
							OFFSET 0.000000 0.000000 0.000000
						}
					}
				}
			}
		}
	}
	JOINT RHipJoint
	{
		OFFSET 0.000000 0.000000 0.000000
		CHANNELS 3 Zrotation Yrotation Xrotation
		JOINT RightUpLeg
		{
			OFFSET -1.800000 -1.400000 0.085000
			CHANNELS 3 Zrotation Yrotation Xrotation
			JOINT RightLeg
			{
				OFFSET -2.215000 -6.000000 0.000000
				CHANNELS 3 Zrotation Yrotation Xrotation
				JOINT RightFoot
				{
					OFFSET -2.500000 -6.900000 0.000000
					CHANNELS 3 Zrotation Yrotation Xrotation
					JOINT RightToeBase
					{
						OFFSET -0.200000 -0.500000 1.950000
						CHANNELS 3 Zrotation Yrotation Xrotation
						End Site
						{
							OFFSET 0.000000 0.000000 0.000000
						}
					}
				}
			}
		}
	}
	JOINT LowerBack
	{
		OFFSET 0.000000 0.000000 0.000000
		CHANNELS 3 Zrotation Yrotation Xrotation
		JOINT Spine
		{
			OFFSET -0.087000 1.940000 -0.288900
			CHANNELS 3 Zrotation Yrotation Xrotation
			JOINT Spine1
			{
				OFFSET 0.000000 1.950000 0.060000
				CHANNELS 3 Zrotation Yrotation Xrotation
				JOINT Neck
				{
					OFFSET 0.000000 0.000000 0.000000
					CHANNELS 3 Zrotation Yrotation Xrotation
					JOINT Neck1
					{
						OFFSET 0.000000 1.600000 0.340000
						CHANNELS 3 Zrotation Yrotation Xrotation
						JOINT Head
						{
							OFFSET 0.000000 1.667000 -0.240000
							CHANNELS 3 Zrotation Yrotation Xrotation
							End Site
							{
								OFFSET 0.000000 0.000000 0.000000
							}
						}
					}
				}
				JOINT LeftShoulder
				{
					OFFSET 0.000000 0.000000 0.000000
					CHANNELS 3 Zrotation Yrotation Xrotation
					JOINT LeftArm
					{
						OFFSET 2.700000 1.550000 -0.730000
						CHANNELS 3 Zrotation Yrotation Xrotation
						JOINT LeftForeArm
						{
							OFFSET 5.450000 0.000000 0.000000
							CHANNELS 3 Zrotation Yrotation Xrotation
							JOINT LeftHand
							{
								OFFSET 3.450000 0.000000 0.000000
								CHANNELS 3 Zrotation Yrotation Xrotation
								JOINT LeftHandIndex1
								{
									OFFSET 0.750000 0.000000 0.000000
									CHANNELS 3 Zrotation Yrotation Xrotation
									End Site
									{
										OFFSET 0.000000 0.000000 0.000000
									}
								}
							}
						}
					}
				}
				JOINT RightShoulder
				{
					OFFSET 0.000000 0.000000 0.000000
					CHANNELS 3 Zrotation Yrotation Xrotation
					JOINT RightArm
					{
						OFFSET -2.700000 1.550000 -0.730000
						CHANNELS 3 Zrotation Yrotation Xrotation
						JOINT RightForeArm
						{
							OFFSET -5.450000 0.000000 0.000000
							CHANNELS 3 Zrotation Yrotation Xrotation
							JOINT RightHand
							{
								OFFSET -3.450000 0.000000 0.000000
								CHANNELS 3 Zrotation Yrotation Xrotation
								JOINT RightHandIndex1
								{
									OFFSET -0.750000 0.000000 0.000000
									CHANNELS 3 Zrotation Yrotation Xrotation
									End Site
									{
										OFFSET 0.000000 0.000000 0.000000
									}
								}
							}
						}
					}
				}
			}
		}
	}
}
MOTION
Frames: 12
Frame Time: 0.016667
0.108020 16.871160 -1.280990 -3.532284 -1.748234 6.901571 -15.213245 14.141940 3.346282 10.449466 -1.203347 -10.764248 -6.387610 4.736863 5.890659 -0.230660 3.761760 3.443480 0.434320 -0.002270 0.597440 17.846975 -11.113186 2.662594 -11.660948 0.724982 -12.436562 4.841282 -4.447215 10.669029 -0.207451 -3.047195 3.396790 -0.139010 0.100580 0.212180 -2.844026 -2.797122 -8.191173 7.034755 -0.459222 12.485985 -0.513909 1.486072 -12.310857 3.857378 -1.188608 -9.646105 -4.757906 1.810608 39.436298 -4.234740 3.859980 -5.848440 -10.923282 5.844842 0.417115 -3.868887 16.042649 -0.472150 23.951478 -16.108540 -1.035882 -3.672145 3.027133 0.579450 -0.017930 0.072090 0.152410 4.107984 -2.412700 6.119004 9.330971 -17.126490 -3.732506 -30.791947 28.892754 -3.790161 2.447797 -1.660434 -0.117440 0.011280 -0.241000 -0.189130 
0.106570 16.871430 -1.280530 -3.363764 -1.659474 6.877266 -15.229288 14.127700 3.341616 10.315752 -1.189266 -10.694508 -6.414746 4.726067 5.834898 -0.215834 3.741763 3.448117 0.438660 0.008100 0.592140 17.834600 -11.114202 2.660453 -11.803869 0.689575 -12.317012 4.841174 -4.442310 10.489435 -0.213228 -3.061108 3.394874 -0.142770 0.093250 0.217730 -2.805309 -2.773447 -8.182965 6.581544 -0.237689 12.297250 -0.199965 1.601574 -11.765394 3.873048 -1.074549 -9.909927 -4.629081 1.538577 39.522659 -4.317670 3.648170 -5.691330 -10.921332 5.275904 0.672899 -4.063958 16.227389 -0.637922 22.832506 -15.455800 -0.937353 -3.660597 3.030282 0.573520 -0.019460 0.077020 0.155640 4.140372 -1.932866 6.395986 9.125005 -17.831333 -3.651652 -29.224206 27.413641 -3.265179 2.458941 -1.654918 -0.102090 -0.001810 -0.246690 -0.182310 
0.107320 16.871180 -1.279240 -3.234085 -1.485099 6.839581 -15.237398 14.090182 3.327924 10.255032 -1.162067 -10.587710 -6.491367 4.724119 5.733483 -0.197036 3.735545 3.447494 0.429410 0.008100 0.578750 17.834977 -11.111764 2.662988 -11.983391 0.636190 -12.068853 5.001024 -4.473230 10.167302 -0.223555 -3.091480 3.382707 -0.153620 0.093210 0.227990 -2.799222 -2.714720 -8.163101 6.321720 -0.036629 11.946949 -0.008402 1.652761 -10.730143 3.859056 -0.942942 -10.292459 -4.449119 1.232409 39.527259 -4.366860 3.396140 -5.710910 -10.632951 4.575093 1.098761 -4.742103 16.652584 -0.974443 21.006555 -14.556843 -0.833071 -3.657765 3.019190 0.567010 -0.018890 0.085450 0.154110 3.889338 -1.382148 6.754434 9.289111 -18.154548 -3.638534 -26.820930 24.519220 -2.486278 2.486389 -1.621973 -0.087380 -0.009530 -0.242210 -0.170530 
0.108490 16.869450 -1.267950 -3.099645 -1.328989 7.113361 -15.246312 14.037453 3.325560 10.163433 -1.182843 -10.661747 -6.688915 4.718849 5.543121 -0.185723 3.738283 3.452612 0.412480 -0.009080 0.563460 17.834524 -11.101921 2.675013 -12.114425 0.626451 -11.981454 5.134247 -4.457045 9.683923 -0.224367 -3.104359 3.383670 -0.165480 0.106370 0.233870 -2.789271 -2.639487 -8.152205 6.000202 0.149665 11.340922 0.229694 1.704264 -10.291516 3.853251 -0.771578 -10.609882 -4.132537 0.960572 39.411496 -4.403010 3.210890 -5.243180 -10.132243 4.261333 1.426613 -5.444240 17.033859 -1.206500 19.183533 -13.342768 -0.677920 -3.673490 2.995050 0.560180 -0.009530 0.083370 0.157890 3.420991 -1.211232 7.048335 9.469080 -18.222856 -3.482975 -23.840000 21.559688 -1.701301 2.514418 -1.578525 -0.087450 -0.007850 -0.235710 -0.163140 
0.112350 16.867090 -1.256640 -3.054394 -1.187844 7.367619 -15.243924 13.991320 3.315767 10.061102 -1.201514 -10.706234 -6.650415 4.657396 5.342316 -0.172840 3.699449 3.458609 0.408900 -0.007710 0.550440 17.843774 -11.100205 2.692973 -12.155460 0.621984 -11.904840 5.215414 -4.424615 9.207226 -0.230312 -3.114138 3.378982 -0.172920 0.097080 0.245000 -2.809089 -2.554757 -8.142260 5.972410 0.295067 10.751826 0.224263 1.730849 -9.814426 3.888166 -0.562453 -10.974825 -3.758849 0.704408 39.454789 -4.391520 3.070130 -4.874160 -9.594997 3.960944 1.800628 -6.500055 17.457784 -1.504880 18.080931 -11.941693 -0.558098 -3.681227 2.992516 0.553880 -0.010610 0.090360 0.159800 2.793223 -1.087263 7.372103 10.175254 -18.354361 -3.477794 -21.395251 18.627741 -1.148833 2.551421 -1.544646 -0.071780 -0.029950 -0.237270 -0.155830 
0.114820 16.865160 -1.241880 -2.967479 -1.108615 7.756022 -15.235440 13.938827 3.319065 9.905447 -1.246956 -10.797026 -6.666965 4.582226 5.024861 -0.139711 3.637419 3.475662 0.415990 0.006150 0.552700 17.855180 -11.103154 2.717392 -12.234632 0.643769 -12.008216 5.316598 -4.374058 8.763121 -0.233383 -3.110079 3.378758 -0.181690 0.082630 0.251730 -2.838766 -2.450195 -8.150348 5.940391 0.421937 10.154738 0.079374 1.764028 -9.948582 3.899819 -0.349689 -11.223791 -3.380145 0.518943 39.691528 -4.230800 2.964930 -4.054730 -9.109151 3.973431 2.026131 -7.191908 17.883765 -1.683483 17.503738 -11.047792 -0.442699 -3.680116 3.008508 0.533290 -0.014080 0.096110 0.161630 2.259815 -1.248019 7.571439 10.852809 -18.489139 -3.423865 -19.593983 16.194364 -0.783574 2.603729 -1.526615 -0.043590 -0.059880 -0.253620 -0.143920 
0.117790 16.863800 -1.229390 -2.886664 -1.055288 8.133876 -15.226985 13.891092 3.320970 9.739450 -1.298212 -10.942649 -6.659317 4.506925 4.758001 -0.116265 3.584337 3.489741 0.420510 0.018180 0.546210 17.867279 -11.105767 2.735870 -12.294007 0.673240 -12.156024 5.371528 -4.324136 8.410060 -0.229501 -3.110562 3.383648 -0.182480 0.076120 0.260360 -2.868959 -2.356303 -8.150420 5.941506 0.522087 9.633751 -0.088133 1.783096 -10.172094 3.914286 -0.145458 -11.323286 -2.966059 0.397654 39.701947 -4.175860 2.965390 -3.180360 -8.797334 4.143058 2.127557 -7.701823 18.209938 -1.789905 17.306526 -10.355957 -0.348345 -3.689260 3.026124 0.509450 -0.007220 0.097440 0.169700 1.885882 -1.570308 7.643110 11.485354 -18.478900 -3.383214 -18.557989 13.978403 -0.545140 2.648929 -1.518620 -0.022760 -0.085090 -0.267600 -0.132670 
0.121350 16.859750 -1.219460 -2.830162 -0.922365 8.451437 -15.217812 13.846080 3.317295 9.630061 -1.340241 -11.087914 -6.674374 4.458167 4.565780 -0.117603 3.564607 3.500300 0.409990 0.008490 0.527820 17.882061 -11.099025 2.753222 -12.391053 0.696073 -12.211901 5.478130 -4.294104 8.005277 -0.221390 -3.128077 3.385464 -0.187270 0.092150 0.262050 -2.906847 -2.284678 -8.143683 6.054264 0.594154 9.152001 -0.308089 1.784055 -10.303852 3.908054 -0.035709 -11.323456 -2.725881 0.312555 39.548425 -4.135180 2.875290 -2.332770 -8.596744 4.369193 2.124353 -8.049192 18.281085 -1.836103 17.223402 -9.779444 -0.297062 -3.712698 3.027449 0.495000 0.008550 0.081230 0.173310 1.654357 -1.915197 7.666129 12.020793 -18.585662 -3.375239 -17.857615 12.130455 -0.376657 2.675317 -1.506064 -0.023160 -0.090170 -0.260930 -0.127170 
0.126620 16.853180 -1.208900 -2.916872 -0.820512 8.754323 -15.203451 13.807095 3.312814 9.682401 -1.374128 -11.242039 -6.747197 4.445597 4.429302 -0.111050 3.567230 3.507848 0.397000 -0.004240 0.511110 17.903393 -11.085833 2.768154 -12.319936 0.723316 -12.238121 5.515615 -4.239456 7.620128 -0.207748 -3.136807 3.393959 -0.191840 0.116770 0.260270 -2.961484 -2.232784 -8.133717 6.451301 0.600545 8.655049 -0.508801 1.756959 -10.423098 3.870540 -0.089708 -11.235411 -2.777255 0.347029 39.332286 -4.033810 2.767350 -1.252530 -8.339683 4.795188 2.033501 -8.561050 18.231996 -1.924957 17.276747 -9.516086 -0.272485 -3.741111 3.027592 0.471130 0.029250 0.058680 0.177290 1.412476 -2.329102 7.611674 12.293162 -18.425227 -3.312597 -17.330094 10.483254 -0.248772 2.703949 -1.498045 -0.025260 -0.088730 -0.254830 -0.118900 
0.130220 16.846880 -1.198890 -2.952546 -0.811118 8.976576 -15.192312 13.781729 3.310992 9.657640 -1.395352 -11.343560 -6.784415 4.431997 4.344469 -0.103829 3.560187 3.512433 0.388650 -0.007750 0.492010 17.918018 -11.080724 2.780742 -12.275345 0.744908 -12.265952 5.490450 -4.182472 7.333140 -0.196792 -3.141347 3.399128 -0.190040 0.131420 0.258290 -2.999182 -2.190582 -8.130638 6.674759 0.632802 8.322294 -0.614889 1.767516 -10.707449 3.802177 -0.146747 -11.122383 -2.852687 0.463837 39.310914 -3.739570 2.651290 -0.354400 -8.211481 5.237829 1.915100 -8.682835 18.240915 -1.910002 17.316684 -9.074625 -0.212973 -3.761718 3.035172 0.449790 0.042520 0.043440 0.183240 1.388579 -2.744658 7.512202 12.252285 -18.361464 -3.186954 -16.753336 9.154476 -0.137974 2.728735 -1.493438 -0.024490 -0.091840 -0.251940 -0.110010 
0.133100 16.838640 -1.191260 -2.925577 -0.830810 9.104344 -15.184859 13.746328 3.296292 9.562320 -1.401404 -11.348675 -6.782133 4.414954 4.297686 -0.100371 3.555668 3.513809 0.378270 -0.014780 0.473150 17.932220 -11.079221 2.791109 -12.364602 0.747540 -12.223772 5.575062 -4.169253 7.050949 -0.191921 -3.172057 3.386784 -0.191570 0.144360 0.266010 -3.030162 -2.123841 -8.110018 6.729270 0.698461 7.956186 -0.697895 1.761551 -10.591328 3.752246 -0.016356 -11.053981 -2.558433 0.413084 39.135120 -3.688830 2.606080 0.402970 -8.238073 5.347893 1.917596 -8.631269 18.381013 -1.876211 17.344393 -8.504371 -0.162347 -3.784828 3.049570 0.431430 0.057350 0.031430 0.185280 1.470133 -3.016130 7.452999 12.503708 -18.469135 -3.169403 -16.485824 8.091655 -0.068595 2.747469 -1.497207 -0.021000 -0.102620 -0.244600 -0.102080 
0.133940 16.832180 -1.183520 -2.897141 -0.884799 9.148540 -15.180226 13.725277 3.288713 9.513646 -1.395370 -11.291041 -6.811896 4.412662 4.275624 -0.102338 3.556810 3.508960 0.381050 -0.010240 0.466080 17.940551 -11.084468 2.793096 -12.408775 0.742632 -12.170183 5.590490 -4.169282 6.951358 -0.191541 -3.193702 3.378411 -0.188070 0.145280 0.273150 -3.047429 -2.075058 -8.095738 6.731967 0.777338 7.753432 -0.752992 1.795440 -10.622161 3.711986 0.103108 -10.927942 -2.321309 0.313259 39.080068 -3.638310 2.495890 0.587720 -8.256459 5.582314 1.818805 -8.466984 18.293213 -1.815448 17.324387 -8.064583 -0.127775 -3.798481 3.061398 0.424330 0.063730 0.026300 0.185360 1.540786 -3.378201 7.360635 12.734366 -18.591763 -3.163829 -16.205602 7.312318 -0.012863 2.756859 -1.499324 -0.015000 -0.113590 -0.241760 -0.100330 
